# xmcd
#
# Track frame offsets:
#	150
#	33707
#	64200
#	94672
#	119652
#	141559
#	164305
#	179312
#	192836
#	218804
#	242243
#	264635
#	299896
#
# Disc length: 4308 seconds
#
# Revision: 0
# Processed by: cddbd v1.5.2PL0 Copyright (c) Steve Scherf et al.
# Submitted via: EasyCDDAExtractor 16.0.8.2
#
DISCID=d810d20d
DTITLE=Συλλογικός δίσκος - Αμάν... Αμήν-Σ. Ξαρχάκος 1
DYEAR=1995
DGENRE=Ρεμπέτικη
TTITLE0=Μαραγκόπουλος Νίκος - Μάννα μου Ελλάς [πρόλογος, Σ. Ξαρχάκου-Ν. Γκάτσο
TTITLE0=υ]
TTITLE1=Πάνου Πόλυ - Το βουνό [του Χάρου, Λουκά Νταράλα-Ευάγγελου Πρέκα]
TTITLE2=Μαντζόπουλος Κώστας - Βγήκε ο Χάρος να ψαρέψει [του Χάρου, Γ.Παπαϊωάνν
TTITLE2=ου]
TTITLE3=Τσίγκος Κώστας-Μαντζόπουλος Κ.-Πάνου Πόλυ - Πέντε Έλληνες στον Άδη [Χά
TTITLE3=ρου, Γ.Παπαϊωάννου-Κ.Μάνεση]
TTITLE4=Πάνου Πόλυ-Τσίγκος Κ.-Μαντζόπουλος Κ. - Όταν συμβεί στα πέριξ [του τεκ
TTITLE4=έ, Βασίλη Τσιτσάνη]
TTITLE5=Πάνου Πόλυ - Λιτανεία του μάγκα [του τεκέ, Βασίλη Τσιτσάνη]
TTITLE6=Μαντζόπουλος Κώστας-Μαραγκόπουλος Ν.-Τσίγκος Κ. - Χτες το βράδυ στο σκ
TTITLE6=οτάδι(Οι μπάτσοι)[τεκέ, Μ.Βαμβακάρη]
TTITLE7=Μαραγκόπουλος Νίκος-Τσίγκος Κ.-Μαντζόπουλος Κ. - Όσοι γίνουν πρωθυπουρ
TTITLE7=γοί [του τεκέ, Μ. Βαμβακάρη]
TTITLE8=Πάνου Πόλυ-Μαντζόπουλος-Μαραγκόπουλος-ΣουλτάτουΜ. - Μέσ' στον οντά ενό
TTITLE8=ς πασά [Ανατολής,Σ.Περιστέρη-Μ.Μάτσα]
TTITLE9=Πάνου Πόλυ-Τσίγκος Κ.-Μαραγκόπουλος Ν. - Η Σεράχ [της Ανατολής, Βασίλη
TTITLE9=Τσιτσάνη]
TTITLE10=Σουλτάτου Μαρία-Τσίγκος Κ.-Μαραγκόπουλος Ν. - Γκιουλμπαχάρ [της Ανατο
TTITLE10=λής, Βασίλη Τσιτσάνη]
TTITLE11=Σουλτάτου Μαρία - Μανάκι μου [της Ανατολής, ανωνύμου, διασκ. Σ. Ξαρχά
TTITLE11=κου]
TTITLE12=Λεονάρδου Σωτηρία - Μπουρνοβαλιά [της Ανατολής, Σ.  Ξαρχάκου-Ν. Γκάτσ
TTITLE12=ου]
EXTD=
EXTT0=
EXTT1=
EXTT2=
EXTT3=
EXTT4=
EXTT5=
EXTT6=
EXTT7=
EXTT8=
EXTT9=
EXTT10=
EXTT11=
EXTT12=
PLAYORDER=
